HIERARCHY
ROOT Hips
{
  OFFSET -187.679 86.5976 -156.378
  CHANNELS 6 Xposition Yposition Zposition Zrotation Xrotation Yrotation
  JOINT LeftUpLeg
  {
    OFFSET 8.64259 1.95398 -2.38835
    CHANNELS 3 Zrotation Xrotation Yrotation
    JOINT LeftLeg
    {
      OFFSET 43.7702 0 0
      CHANNELS 3 Zrotation Xrotation Yrotation
      JOINT LeftFoot
      {
        OFFSET 40.6238 0 0
        CHANNELS 3 Zrotation Xrotation Yrotation
        JOINT LeftToeBase
        {
          OFFSET 12.7242 0 0
          CHANNELS 3 Zrotation Xrotation Yrotation
          End Site
          {
            OFFSET 0 0 0
          }
        }
      }
    }
  }
  JOINT RightUpLeg
  {
    OFFSET -8.2249 1.95398 -2.59336
    CHANNELS 3 Zrotation Xrotation Yrotation
    JOINT RightLeg
    {
      OFFSET 43.5653 0 0
      CHANNELS 3 Zrotation Xrotation Yrotation
      JOINT RightFoot
      {
        OFFSET 40.6238 0 0
        CHANNELS 3 Zrotation Xrotation Yrotation
        JOINT RightToeBase
        {
          OFFSET 12.7242 0 0
          CHANNELS 3 Zrotation Xrotation Yrotation
          End Site
          {
            OFFSET 0 0 0
          }
        }
      }
    }
  }
  JOINT Spine
  {
    OFFSET 0.165834 0.87714 6.61349
    CHANNELS 3 Zrotation Xrotation Yrotation
    JOINT Spine1
    {
      OFFSET 7.38963 1.71661e-005 0
      CHANNELS 3 Zrotation Xrotation Yrotation
      JOINT Spine2
      {
        OFFSET 11.9445 1.14441e-005 0
        CHANNELS 3 Zrotation Xrotation Yrotation
        JOINT Spine3
        {
          OFFSET 14.7254 4.19617e-005 0
          CHANNELS 3 Zrotation Xrotation Yrotation
          JOINT Spine4
          {
            OFFSET 10.9679 0 0
            CHANNELS 3 Zrotation Xrotation Yrotation
            JOINT RightShoulder
            {
              OFFSET 2.46616 -1.6653 3.69651
              CHANNELS 3 Zrotation Xrotation Yrotation
              JOINT RightArm
              {
                OFFSET 13.0012 0 0
                CHANNELS 3 Zrotation Xrotation Yrotation
                JOINT RightForeArm
                {
                  OFFSET 28.7848 1.52588e-005 0
                  CHANNELS 3 Zrotation Xrotation Yrotation
                  JOINT RightHand
                  {
                    OFFSET 26.5688 1.52588e-005 0
                    CHANNELS 3 Zrotation Xrotation Yrotation
                    End Site
                    {
                      OFFSET 0 0 0
                    }
                  }
                }
              }
            }
            JOINT LeftShoulder
            {
              OFFSET 2.38034 -1.29275 -3.7523
              CHANNELS 3 Zrotation Xrotation Yrotation
              JOINT LeftArm
              {
                OFFSET 16.3182 6.10352e-005 0
                CHANNELS 3 Zrotation Xrotation Yrotation
                JOINT LeftForeArm
                {
                  OFFSET 27.0901 0 0
                  CHANNELS 3 Zrotation Xrotation Yrotation
                  JOINT LeftHand
                  {
                    OFFSET 24.5451 1.52588e-005 0
                    CHANNELS 3 Zrotation Xrotation Yrotation
                    End Site
                    {
                      OFFSET 0 0 0
                    }
                  }
                }
              }
            }
            JOINT Neck
            {
              OFFSET 5.0226 -0.0266342 0
              CHANNELS 3 Zrotation Xrotation Yrotation
              JOINT Head
              {
                OFFSET 6.69363 2.86102e-005 0
                CHANNELS 3 Zrotation Xrotation Yrotation
                End Site
                {
                  OFFSET 0 0 0
                }
              }
            }
          }
        }
      }
    }
  }
}
MOTION
Frames:	10
Frame Time:	0.0416667
75.6891 100.973 -43.2052 102.811 44.4511 83.5472 -174.588 -4.73585 86.6818 -30.9396 25.3833 8.63859 80.5609 9.53911 -0.629214 4.85283 -10.6347 1.10005 179.932 15.5871 94.067 -32.5044 3.13398 -1.73696 66.4041 -3.50203 -1.51322 22.1225 -2.02086 2.79447 -0.447848 8.16167 -90.0897 10.5504 -0.933157 -0.0946073 -1.12023 -0.936398 -0.0534453 -23.6577 -0.86159 -0.370704 -3.64509 -0.861568 -0.370699 84.4911 -49.8343 -109.023 4.42701 -16.7178 -31.5174 0.154285 23.4296 -54.4367 -5.45799 -0.0169074 -5.13534 -90.5976 -42.3548 76.1964 -25.9428 3.86885 -20.138 -25.9963 -28.7639 -62.8859 7.60176 0.615696 3.84906 -0.501754 2.04726 -12.0358 8.07624 4.03211 4.07903 
79.1079 100.678 -46.4714 103.087 46.5168 83.0302 -173.31 -8.77722 88.3055 -29.0008 29.2495 8.22376 82.1716 10.8947 -0.356916 6.24824 -11.0746 2.94698 179.947 15.5622 94.6376 -20.3818 1.16887 -0.625355 64.8933 -2.95897 -1.59863 22.8676 -1.94573 2.97832 -0.671183 8.22887 -90.0387 10.417 -1.35474 0.0421498 -1.25327 -1.35156 0.101751 -23.7938 -1.30477 -0.367025 -3.78118 -1.30477 -0.367017 84.9315 -49.9326 -108.328 5.15805 -15.1151 -30.5806 -0.163319 22.544 -55.2445 -6.05161 -0.0750884 -3.87857 -90.657 -41.9279 75.9861 -25.9593 5.55748 -21.9679 -25.0448 -28.1047 -63.8374 0.505519 -0.0324457 -1.17318 0.0681171 1.72094 -13.7173 8.30483 4.03656 4.31872 
82.7726 99.8465 -50.0993 103.429 47.0544 82.9688 -171.475 -13.1349 90.4687 -26.9767 31.5721 7.39646 83.9752 12.2302 -0.0453106 5.05704 -10.9263 1.7356 179.487 14.6736 96.0524 -10.4289 5.44715 1.89373 62.4516 -2.2663 -0.337303 25.3816 -1.24103 2.23049 -0.735701 8.28825 -90.019 10.2986 -1.47442 0.0895717 -1.3715 -1.46903 0.154382 -23.9131 -1.43317 -0.357788 -3.90047 -1.43315 -0.357787 85.0133 -50.0879 -108.156 5.56014 -14.4869 -30.2039 0.899033 22.9673 -56.1751 -5.00845 -0.0810474 -3.47334 -90.7068 -42.062 75.9406 -25.9249 4.6341 -23.1254 -24.4155 -27.6564 -62.7009 2.2836 0.100626 0.247454 -0.133845 1.65304 -14.8236 8.9214 4.18079 4.87598 
86.7295 98.431 -54.0069 103.714 46.8865 83.0575 -169.835 -17.227 92.2319 -26.3494 31.3842 6.81963 86.7188 13.2471 -1.09791 5.67401 -10.9183 2.22353 -179.993 14.933 97.9453 -8.26149 9.87129 3.3418 62.6692 -2.62287 -0.354104 27.0553 -0.756551 1.62828 -0.749943 8.31676 -90.0505 10.2413 -1.51729 0.0293942 -1.42876 -1.51455 0.0961582 -23.9707 -1.45597 -0.428076 -3.95803 -1.45596 -0.428077 84.7877 -50.3538 -108.409 4.94375 -13.8759 -30.0113 0.728246 22.9819 -56.0748 -6.77038 -0.240387 -1.07881 -90.8971 -42.2814 75.6908 -26.1697 4.13978 -23.478 -24.1044 -27.5291 -62.2958 2.78472 0.154732 1.17888 -0.0765262 1.7254 -14.4654 8.97737 4.2117 4.8739 
90.4429 97.3034 -58.8782 103.236 48.8709 82.8479 -169.065 -20.7884 92.8317 -26.0854 35.1623 7.52724 84.5856 13.6987 2.04715 9.63416 -8.99595 2.14202 178.853 18.2723 98.1709 -17.0533 8.4293 3.30515 63.3737 -1.68675 -0.236859 24.7189 -1.30613 2.08096 -0.989519 8.23446 -90.0394 10.407 -1.98924 0.0962356 -1.26246 -1.98306 0.18372 -23.8093 -1.92616 -0.506287 -3.79666 -1.92616 -0.506289 85.6204 -50.187 -107.212 5.3036 -14.2871 -30.4982 1.06756 22.9996 -57.2058 -4.31144 -0.0451713 -4.32949 -90.8552 -42.0266 75.6896 -26.7064 4.27427 -23.5031 -24.0843 -27.491 -62.3028 2.35838 0.149648 1.53045 1.09603 1.60635 -13.6643 8.17892 4.0438 4.45805 
94.3221 96.8506 -63.5333 102.876 50.7041 82.6486 -169.136 -23.8383 93.1428 -25.2521 34.8936 9.27076 80.5715 10.4849 0.542956 15.111 -4.44003 -2.23946 178.29 22.764 98.0881 -28.523 5.27004 3.00829 62.2255 -0.0804103 -1.6012 21.1107 -1.98134 2.16676 -1.15968 8.12767 -90.0548 10.6214 -2.33483 0.102542 -1.04749 -2.32804 0.205255 -23.5988 -2.25765 -0.604274 -3.5861 -2.25764 -0.60428 85.4606 -50.4695 -107.364 6.03713 -13.6213 -29.4039 -0.669474 21.3679 -57.9354 -3.31781 -0.0573857 -3.55767 -91.1095 -42.6611 75.4498 -26.5396 4.7176 -23.1441 -25.5547 -28.3214 -62.9225 0.15123 0.0621584 2.64928 1.69722 1.3906 -12.4331 7.7491 3.60871 3.53755 
97.9826 96.5341 -68.3447 102.564 51.3265 82.1512 -170.626 -22.1136 91.82 -32.3434 35.757 10.15 71.2665 5.98785 1.22457 28.201 1.62938 -5.7113 177.273 24.1628 97.5576 -37.0562 4.44614 2.86378 63.0412 -0.416264 -1.10931 17.5493 -2.55732 1.96634 -1.10071 8.0216 -90.0707 10.8329 -2.22427 0.0667992 -0.836118 -2.21919 0.164676 -23.3857 -2.14147 -0.605084 -3.37305 -2.14147 -0.605085 86.4704 -49.5729 -106.112 8.24339 -13.4919 -27.8886 -2.58279 19.8069 -57.8926 -1.735 -0.0441111 -4.81557 -91.3553 -43.3342 75.24 -26.6675 5.95982 -22.8695 -23.0324 -28.1617 -61.6807 1.88246 0.114076 1.17504 1.9268 0.873348 -10.5522 7.74901 2.76698 2.8141 
101.375 96.4956 -72.6812 102.718 50.9274 81.8943 -170.808 -15.9103 92.3141 -46.1249 40.5712 10.6229 63.021 1.77009 0.532144 20.1242 -3.0764 -1.16794 176.501 23.1742 97.6547 -42.7741 3.79927 2.70799 67.2853 -2.0375 -0.951676 17.8818 -2.49396 1.96087 -0.862816 7.9527 -90.1251 10.9689 -1.7757 -0.0799611 -0.700799 -1.77748 -0.00171304 -23.2448 -1.66955 -0.610076 -3.23218 -1.66955 -0.610084 87.4086 -48.6008 -104.961 9.62224 -14.5282 -26.8465 6.35987 23.0112 -52.7168 -2.44975 -0.2568 3.05662 -91.9431 -43.5747 74.3673 -26.866 5.84015 -21.8633 -22.5461 -27.447 -61.7528 2.7603 0.158895 1.27166 1.12267 0.455032 -8.55041 7.94615 1.94293 2.32896 
104.5 96.5852 -76.2217 103.069 51.1076 82.194 -170.389 -7.03958 94.3564 -58.7728 42.192 10.5824 56.522 -1.63772 -1.50476 17.4926 -6.17099 3.71987 175.654 20.682 98.0013 -45.1778 3.65927 3.35179 70.7385 -3.16797 -0.721566 19.1712 -2.42671 2.40152 -0.639071 7.9293 -90.2153 11.0139 -1.37201 -0.297027 -0.656287 -1.38376 -0.236344 -23.196 -1.21931 -0.69569 -3.18335 -1.21929 -0.69569 88.293 -48.2176 -103.701 9.34502 -18.3303 -27.2693 -119.656 -27.1161 -107.926 -0.207512 -0.475389 -99.8203 -92.2379 -43.6456 73.9187 -26.2201 7.17101 -22.0783 -22.2965 -28.6727 -61.0523 2.42205 0.170824 1.95945 0.0835023 -0.107116 -6.79792 8.27828 0.97172 1.25511 
107.546 97.4838 -79.9332 104.2 51.9726 80.8007 -171.896 1.17384 94.1776 -67.5699 33.9973 9.5027 63.5187 2.17577 0.799596 12.648 -7.94384 2.79551 175.433 15.8399 97.2436 -43.7015 3.64474 3.42344 73.2084 -4.03222 -0.966517 20.3838 -2.18239 2.34799 -0.681564 8.04916 -90.1441 10.7755 -1.42344 -0.154673 -0.894701 -1.42886 -0.0918748 -23.4353 -1.31115 -0.575399 -3.42265 -1.31115 -0.5754 85.7338 -49.0062 -107.408 7.75807 -14.8271 -27.4817 2.15523 20.9369 -53.3967 -2.47277 -0.175134 -2.79358 -91.7156 -43.4741 74.7028 -26.3815 4.40538 -21.2497 -22.9582 -26.5261 -62.2573 4.17645 0.226774 1.31295 -1.30854 0.357646 -6.98653 9.54477 1.49013 2.23031 
